<svg fill="#FFFFFF" xmlns="http://www.w3.org/2000/svg"  viewBox="0 0 50 50" width="100px" height="100px"><path d="M38,3H12c-4.963,0-9,4.037-9,9v26c0,4.963,4.037,9,9,9h26c4.963,0,9-4.037,9-9V12C47,7.037,42.963,3,38,3z M24.407,10.16	C24.59,10.053,24.795,10,25,10s0.41,0.053,0.593,0.16l12.465,6.608l-13.057,6.932L11.957,16.76L24.407,10.16z M11.548,32.613	C11.207,32.402,11,32.032,11,31.635V18.516l13,6.916V39.61L11.548,32.613z M38.452,32.613L26,39.61V25.433l13-6.901v13.102	C39,32.032,38.793,32.402,38.452,32.613z"/></svg>