<svg 
 xmlns="http://www.w3.org/2000/svg"
 xmlns:xlink="http://www.w3.org/1999/xlink"
 width="311px" height="71px">
<path fill-rule="evenodd"  fill="rgb(255, 255, 255)"
 d="M310.870,55.433 L299.770,55.433 L291.670,42.458 L283.570,55.433 L272.770,55.433 L286.045,36.233 L273.520,17.933 L284.320,17.933 L291.970,30.233 L299.620,17.933 L310.120,17.933 L297.595,36.233 L310.870,55.433 ZM262.345,11.558 C260.744,11.558 259.383,11.022 258.258,9.946 C257.133,8.871 256.570,7.508 256.570,5.858 C256.570,4.208 257.133,2.847 258.258,1.771 C259.383,0.696 260.744,0.158 262.345,0.158 C263.945,0.158 265.282,0.696 266.358,1.771 C267.432,2.847 267.970,4.208 267.970,5.858 C267.970,7.508 267.432,8.871 266.358,9.946 C265.282,11.022 263.945,11.558 262.345,11.558 ZM238.870,1.283 L248.470,1.283 L248.470,55.433 L238.870,55.433 L238.870,1.283 ZM231.370,39.383 L202.795,39.383 C203.345,42.034 204.545,44.146 206.395,45.721 C208.244,47.296 210.620,48.083 213.520,48.083 C215.620,48.083 217.495,47.646 219.145,46.771 C220.795,45.897 222.119,44.584 223.120,42.833 L229.945,48.233 C228.044,50.933 225.708,52.984 222.933,54.383 C220.158,55.783 216.995,56.483 213.445,56.483 C210.445,56.483 207.708,55.996 205.233,55.021 C202.758,54.046 200.620,52.684 198.820,50.933 C197.020,49.184 195.633,47.084 194.658,44.633 C193.683,42.184 193.195,39.509 193.195,36.608 C193.195,33.659 193.694,30.972 194.695,28.546 C195.695,26.121 197.069,24.046 198.820,22.321 C200.570,20.596 202.670,19.259 205.120,18.308 C207.569,17.359 210.220,16.883 213.070,16.883 C215.870,16.883 218.407,17.333 220.683,18.233 C222.957,19.133 224.907,20.408 226.533,22.058 C228.157,23.708 229.420,25.671 230.320,27.946 C231.220,30.222 231.670,32.734 231.670,35.483 C231.670,36.034 231.644,36.634 231.595,37.283 C231.545,37.934 231.470,38.633 231.370,39.383 ZM218.958,27.008 C217.383,25.658 215.369,24.983 212.920,24.983 C210.419,24.983 208.308,25.658 206.583,27.008 C204.858,28.358 203.669,30.184 203.020,32.483 L221.920,32.483 C221.519,30.184 220.533,28.358 218.958,27.008 ZM176.395,1.283 L185.995,1.283 L185.995,55.433 L176.395,55.433 L176.395,1.283 ZM157.795,1.283 L167.395,1.283 L167.395,55.433 L157.795,55.433 L157.795,1.283 ZM139.495,50.258 C136.795,54.409 132.719,56.483 127.270,56.483 C125.219,56.483 123.395,56.183 121.795,55.583 C120.194,54.983 118.857,54.158 117.783,53.108 C116.707,52.058 115.882,50.834 115.308,49.433 C114.732,48.034 114.445,46.534 114.445,44.933 C114.445,41.234 115.870,38.271 118.720,36.046 C121.570,33.822 125.819,32.609 131.470,32.408 L139.495,32.108 L139.495,31.808 C139.495,29.708 138.807,27.996 137.433,26.671 C136.057,25.347 134.144,24.683 131.695,24.683 C127.595,24.683 124.694,26.509 122.995,30.158 L115.495,26.408 C116.894,23.408 118.970,21.072 121.720,19.396 C124.469,17.721 127.895,16.883 131.995,16.883 C137.294,16.883 141.419,18.259 144.370,21.008 C147.320,23.759 148.795,27.533 148.795,32.333 L148.795,55.433 L139.495,55.433 L139.495,50.258 ZM139.495,38.858 L133.120,39.158 C129.620,39.308 127.207,39.871 125.883,40.846 C124.557,41.821 123.895,42.959 123.895,44.258 C123.895,45.608 124.445,46.684 125.545,47.483 C126.644,48.284 128.095,48.683 129.895,48.683 C132.695,48.683 134.995,47.796 136.795,46.021 C138.595,44.247 139.495,41.884 139.495,38.933 L139.495,38.858 ZM104.058,26.708 C102.783,27.059 101.695,27.659 100.795,28.508 C99.895,29.359 99.194,30.471 98.695,31.846 C98.195,33.222 97.945,34.958 97.945,37.058 L97.945,55.433 L88.345,55.433 L88.345,17.933 L97.945,17.933 L97.945,23.558 C99.995,19.508 103.394,17.483 108.145,17.483 L110.545,17.483 L110.545,26.183 L108.370,26.183 C106.769,26.183 105.333,26.359 104.058,26.708 ZM70.045,50.258 C67.345,54.409 63.269,56.483 57.820,56.483 C55.769,56.483 53.945,56.183 52.345,55.583 C50.744,54.983 49.407,54.158 48.333,53.108 C47.257,52.058 46.432,50.834 45.858,49.433 C45.282,48.034 44.995,46.534 44.995,44.933 C44.995,41.234 46.420,38.271 49.270,36.046 C52.120,33.822 56.369,32.609 62.020,32.408 L70.045,32.108 L70.045,31.808 C70.045,29.708 69.357,27.996 67.983,26.671 C66.607,25.347 64.694,24.683 62.245,24.683 C58.145,24.683 55.244,26.509 53.545,30.158 L46.045,26.408 C47.444,23.408 49.520,21.072 52.270,19.396 C55.019,17.721 58.445,16.883 62.545,16.883 C67.844,16.883 71.969,18.259 74.920,21.008 C77.870,23.759 79.345,27.533 79.345,32.333 L79.345,55.433 L70.045,55.433 L70.045,50.258 ZM70.045,38.858 L63.670,39.158 C60.170,39.308 57.757,39.871 56.433,40.846 C55.107,41.821 54.445,42.959 54.445,44.258 C54.445,45.608 54.995,46.684 56.095,47.483 C57.194,48.284 58.645,48.683 60.445,48.683 C63.245,48.683 65.545,47.796 67.345,46.021 C69.145,44.247 70.045,41.884 70.045,38.933 L70.045,38.858 ZM35.058,50.821 C33.532,52.596 31.707,53.984 29.583,54.983 C27.457,55.983 25.120,56.483 22.570,56.483 C19.720,56.483 17.232,55.870 15.108,54.646 C12.982,53.421 11.245,51.758 9.895,49.658 L9.895,70.433 L0.295,70.433 L0.295,17.933 L9.895,17.933 L9.895,23.708 C11.245,21.608 12.982,19.947 15.108,18.721 C17.232,17.496 19.720,16.883 22.570,16.883 C25.120,16.883 27.457,17.384 29.583,18.383 C31.707,19.384 33.532,20.772 35.058,22.546 C36.582,24.321 37.769,26.408 38.620,28.808 C39.470,31.208 39.895,33.833 39.895,36.683 C39.895,39.533 39.470,42.158 38.620,44.558 C37.769,46.958 36.582,49.047 35.058,50.821 ZM29.245,32.258 C28.745,30.959 28.045,29.834 27.145,28.883 C26.245,27.934 25.182,27.196 23.958,26.671 C22.732,26.146 21.395,25.883 19.945,25.883 C18.494,25.883 17.157,26.146 15.933,26.671 C14.707,27.196 13.645,27.934 12.745,28.883 C11.845,29.834 11.144,30.959 10.645,32.258 C10.145,33.559 9.895,35.009 9.895,36.608 C9.895,38.159 10.145,39.608 10.645,40.958 C11.144,42.308 11.845,43.459 12.745,44.408 C13.645,45.359 14.707,46.109 15.933,46.658 C17.157,47.209 18.494,47.483 19.945,47.483 C21.395,47.483 22.732,47.209 23.958,46.658 C25.182,46.109 26.245,45.359 27.145,44.408 C28.045,43.459 28.745,42.308 29.245,40.958 C29.744,39.608 29.995,38.159 29.995,36.608 C29.995,35.009 29.744,33.559 29.245,32.258 ZM267.070,55.433 L257.470,55.433 L257.470,17.933 L267.070,17.933 L267.070,55.433 Z"/>
</svg>